<?xml version="1.0" encoding="iso-8859-1"?>
<!-- Generator: Adobe Illustrator 19.0.0, SVG Export Plug-In . SVG Version: 6.00 Build 0)  -->
<svg version="1.1" id="Capa_1" xmlns="http://www.w3.org/2000/svg" xmlns:xlink="http://www.w3.org/1999/xlink" x="0px" y="0px"
	 viewBox="0 0 512 512" style="enable-background:new 0 0 512 512;" xml:space="preserve">
<g>
	<g>
		<g>
			<path d="M452,0H60C26.916,0,0,26.916,0,60v232c0,33.084,26.916,60,60,60h60v-60c0-11.028,8.972-20,20-20h232
				c11.028,0,20,8.972,20,20v60h60c33.084,0,60-26.916,60-60V60C512,26.916,485.084,0,452,0z M472,292c0,11.028-8.972,20-20,20h-20
				v-20c0-33.084-26.916-60-60-60H140c-33.084,0-60,26.916-60,60v20H60c-11.028,0-20-8.972-20-20V120h432V292z M472,80H40V60
				c0-11.028,8.972-20,20-20h392c11.028,0,20,8.972,20,20V80z"/>
			<rect x="19" y="472" width="40" height="40"/>
			<rect x="236" y="312" width="40" height="200"/>
			<path d="M159,412c0,33.084-26.916,60-60,60v40c55.14,0,100-44.859,100-100V312h-40V412z"/>
			<path d="M353,412V312h-40v100c0,55.141,44.86,100,100,100v-40C379.916,472,353,445.084,353,412z"/>
			<circle cx="411" cy="182" r="20"/>
			<rect x="453" y="472" width="40" height="40"/>
		</g>
	</g>
</g>
<g>
</g>
<g>
</g>
<g>
</g>
<g>
</g>
<g>
</g>
<g>
</g>
<g>
</g>
<g>
</g>
<g>
</g>
<g>
</g>
<g>
</g>
<g>
</g>
<g>
</g>
<g>
</g>
<g>
</g>
</svg>
