<svg height="512pt" viewBox="0 0 512 511" width="512pt" xmlns="http://www.w3.org/2000/svg"><path d="m452 101.3125h-154.011719l78.453125-71.1875-26.878906-29.625-94.304688 85.570312-90.542968-85.3125-27.429688 29.109376 75.816406 71.445312h-153.101562c-33.085938 0-60 26.914062-60 60v291c0 33.082031 26.914062 60 60 60h392c33.085938 0 60-26.917969 60-60v-291c0-33.085938-26.914062-60-60-60zm20 351c0 11.027344-8.972656 20-20 20h-392c-11.027344 0-20-8.972656-20-20v-291c0-11.027344 8.972656-20 20-20h392c11.027344 0 20 8.972656 20 20zm-392-20h292v-251h-292zm40-211h212v171h-212zm322-20c0 11.046875-8.953125 20-20 20s-20-8.953125-20-20 8.953125-20 20-20 20 8.953125 20 20zm0 70c0 11.046875-8.953125 20-20 20s-20-8.953125-20-20 8.953125-20 20-20 20 8.953125 20 20zm0 70c0 11.046875-8.953125 20-20 20s-20-8.953125-20-20 8.953125-20 20-20 20 8.953125 20 20zm0 70c0 11.046875-8.953125 20-20 20s-20-8.953125-20-20 8.953125-20 20-20 20 8.953125 20 20zm0 0"/></svg>