<svg id="Capa_1" enable-background="new 0 0 512 512" height="512" viewBox="0 0 512 512" width="512" xmlns="http://www.w3.org/2000/svg"><g><path d="m512 276c0-33.084-26.916-60-60-60h-25.585l-26.324-78.974c-8.18-24.539-31.055-41.026-56.922-41.026h-174.338c-25.866 0-48.741 16.487-56.921 41.026l-26.325 78.974h-25.585c-33.084 0-60 26.916-60 60v100h43.44c8.256 23.278 30.487 40 56.56 40s48.303-16.722 56.56-40h198.88c8.256 23.278 30.487 40 56.56 40s48.303-16.722 56.56-40h43.44zm-149.856-126.325 22.108 66.325h-108.252v-80h67.169c8.623 0 16.248 5.496 18.975 13.675zm-212.288.001c2.727-8.18 10.352-13.676 18.974-13.676h67.17v80h-108.252zm-49.856 226.324c-11.028 0-20-8.972-20-20s8.972-20 20-20 20 8.972 20 20-8.972 20-20 20zm312 0c-11.028 0-20-8.972-20-20s8.972-20 20-20 20 8.972 20 20-8.972 20-20 20zm60-40h-3.44c-8.256-23.278-30.487-40-56.56-40s-48.303 16.722-56.56 40h-198.88c-8.256-23.278-30.487-40-56.56-40s-48.303 16.722-56.56 40h-3.44v-60c0-11.028 8.972-20 20-20h392c11.028 0 20 8.972 20 20z"/></g></svg>