<svg height="512pt" viewBox="0 0 512 511" width="512pt" xmlns="http://www.w3.org/2000/svg"><path d="m512 234.042969-256-233.542969-256 233.542969 26.929688 29.523437 23.273437-21.230468v209.789062c0 33.050781 26.890625 59.9375 59.941406 59.9375h291.710938c33.050781 0 59.9375-26.886719 59.9375-59.9375v-209.789062l23.273437 21.230468zm-90.164062 218.082031c0 11.015625-8.964844 19.980469-19.980469 19.980469h-291.710938c-11.015625 0-19.980469-8.964844-19.980469-19.980469v-246.246094l165.835938-151.289062 165.835938 151.289062zm-145.617188-55.945312c0 11.035156-8.945312 19.980468-19.980469 19.980468-11.035156 0-19.980469-8.945312-19.980469-19.980468 0-11.035157 8.945313-19.980469 19.980469-19.980469 11.035157 0 19.980469 8.945312 19.980469 19.980469zm-20.328125-178.824219c44.410156 0 86.925781 18.15625 119.714844 51.128906l14.089843 14.164063-28.335937 28.179687-14.089844-14.167969c-25.230469-25.371094-57.683593-39.34375-91.378906-39.339844-33.703125 0-66.152344 13.972657-91.378906 39.339844l-14.085938 14.167969-28.339843-28.171875 14.089843-14.171875c32.78125-32.96875 75.296875-51.125 119.714844-51.128906zm68.324219 105.039062 14.136718 14.121094-28.242187 28.269531-14.132813-14.117187c-10.597656-10.585938-26.191406-17.425781-39.730468-17.425781 0 0 0 0-.003906 0h-.9375c-.003907 0-.003907 0-.007813 0-13.695313 0-29.390625 6.839843-39.988281 17.425781l-14.136719 14.117187-28.242187-28.269531 14.136718-14.121094c17.980469-17.957031 44.121094-29.113281 68.230469-29.113281h.007813.933593.011719c23.945312 0 49.988281 11.15625 67.964844 29.113281zm0 0"/></svg>