<svg height="512pt" viewBox="0 -23 512 512" width="512pt" xmlns="http://www.w3.org/2000/svg"><path d="m452 118h-61v-58c0-33.085938-26.914062-60-60-60h-271c-33.085938 0-60 26.914062-60 60v189.121094c0 33.085937 26.914062 60 60 60h117v40h-66v40h146v16.878906c0 33.085938 26.914062 60 60 60h135c33.085938 0 60-26.914062 60-60v-228c0-33.085938-26.914062-60-60-60zm-412 131.121094v-189.121094c0-11.027344 8.972656-20 20-20h271c11.027344 0 20 8.972656 20 20v58h-34c-33.085938 0-60 26.914062-60 60v91.121094h-197c-11.027344 0-20-8.972656-20-20zm177 100v-40h40v40zm255 56.878906c0 11.027344-8.972656 20-20 20h-135c-11.027344 0-20-8.972656-20-20v-228c0-11.027344 8.972656-20 20-20h135c11.027344 0 20 8.972656 20 20zm-67-197.878906c0 11.046875-8.953125 20-20 20s-20-8.953125-20-20 8.953125-20 20-20 20 8.953125 20 20zm0 0"/></svg>