<svg xmlns="http://www.w3.org/2000/svg" height="511pt" version="1.1" viewBox="1 0 511.99987 511" width="511pt">
<g id="surface1">
<path d="M 121.09375 304.980469 L 207.519531 391.414062 L 179.246094 419.683594 L 92.820312 333.25 Z M 433.257812 107.515625 L 363.519531 177.25 C 371.464844 187.003906 387.46875 208.832031 396.484375 236.097656 C 407.554688 269.582031 404.359375 300.152344 387.25 324.519531 C 372.9375 345.363281 350.601562 353.25 332.648438 359.59375 C 323.410156 362.855469 313.855469 366.226562 310.269531 369.957031 C 306.132812 374.257812 302.339844 391.519531 299.574219 404.121094 C 293.835938 430.238281 287.335938 459.835938 267.09375 480.074219 C 246.164062 501.011719 220.402344 512.039062 192.472656 512.039062 C 191.835938 512.039062 191.195312 512.035156 190.550781 512.023438 C 150.332031 511.296875 107.539062 488.542969 66.785156 446.222656 C 23.257812 404.308594 0.167969 360.738281 0 320.195312 C -0.113281 292.546875 10.9375 266.824219 31.957031 245.8125 C 52.203125 225.566406 81.808594 219.101562 107.929688 213.398438 C 120.527344 210.648438 137.777344 206.882812 142.074219 202.753906 C 145.785156 199.179688 149.191406 189.46875 152.488281 180.078125 C 158.882812 161.855469 166.839844 139.171875 187.789062 124.855469 C 210.117188 109.5625 239.726562 106.746094 273.402344 116.710938 C 299.570312 124.460938 322.011719 138.007812 335.339844 148.886719 L 404.671875 79.558594 L 402.042969 60.972656 L 462.53125 0.5 L 512 49.980469 L 451.511719 110.453125 Z M 335.078125 205.691406 L 299.140625 241.625 C 302.796875 249.371094 304.851562 258.015625 304.851562 267.132812 C 304.851562 300.199219 277.949219 327.105469 244.878906 327.105469 C 211.8125 327.105469 184.90625 300.199219 184.90625 267.132812 C 184.90625 234.0625 211.8125 207.160156 244.878906 207.160156 C 254.253906 207.160156 263.132812 209.328125 271.042969 213.179688 L 306.871094 177.355469 C 283.207031 159.554688 236.179688 140.171875 210.363281 157.851562 C 200.226562 164.78125 195.363281 178.640625 190.214844 193.3125 C 185.371094 207.121094 180.363281 221.394531 169.789062 231.566406 C 157.34375 243.53125 137.484375 247.867188 116.457031 252.460938 C 95.707031 256.988281 72.1875 262.125 60.226562 274.085938 C 46.722656 287.585938 39.914062 303.042969 39.980469 320.03125 C 40.101562 349.164062 59.558594 383.835938 94.769531 417.667969 L 95.335938 418.230469 C 128.175781 452.410156 162.242188 471.519531 191.273438 472.046875 C 209.300781 472.382812 224.878906 465.75 238.816406 451.804688 C 250.792969 439.832031 255.960938 416.300781 260.523438 395.542969 C 265.140625 374.523438 269.5 354.667969 281.453125 342.242188 C 291.609375 331.683594 305.703125 326.703125 319.332031 321.890625 C 333.757812 316.796875 347.386719 311.984375 354.324219 301.835938 L 354.484375 301.605469 C 375.332031 272.015625 353.058594 228.933594 335.078125 205.691406 Z M 244.878906 247.140625 C 233.855469 247.140625 224.890625 256.109375 224.890625 267.132812 C 224.890625 278.15625 233.855469 287.125 244.878906 287.125 C 255.902344 287.125 264.871094 278.15625 264.871094 267.132812 C 264.871094 256.109375 255.902344 247.140625 244.878906 247.140625 Z M 244.878906 247.140625 " style=" stroke:none;fill-rule:nonzero;fill:rgb(0%,0%,0%);fill-opacity:1;" />
</g>
</svg>