<svg id="Capa_1" enable-background="new 0 0 512 512" height="512" viewBox="0 0 512 512" width="512" xmlns="http://www.w3.org/2000/svg"><g><path d="m452 0h-40c-33.084 0-60 26.916-60 60h-192c0-33.084-26.916-60-60-60h-40c-33.084 0-60 26.916-60 60v120c0 33.084 26.916 60 60 60h40c33.084 0 60-26.916 60-60h192c0 33.084 26.916 60 60 60h40c33.084 0 60-26.916 60-60v-120c0-33.084-26.916-60-60-60zm-176 100v40h-40v-40zm-156 80c0 11.028-8.972 20-20 20h-40c-11.028 0-20-8.972-20-20v-120c0-11.028 8.972-20 20-20h40c11.028 0 20 8.972 20 20zm40-80h36v40h-36zm156 40v-40h36v40zm156 40c0 11.028-8.972 20-20 20h-40c-11.028 0-20-8.972-20-20v-120c0-11.028 8.972-20 20-20h40c11.028 0 20 8.972 20 20z"/><path d="m452 272h-40c-33.084 0-60 26.916-60 60h-192c0-33.084-26.916-60-60-60h-40c-33.084 0-60 26.916-60 60v120c0 33.084 26.916 60 60 60h40c33.084 0 60-26.916 60-60h192c0 33.084 26.916 60 60 60h40c33.084 0 60-26.916 60-60v-120c0-33.084-26.916-60-60-60zm-176 100v40h-40v-40zm-156 80c0 11.028-8.972 20-20 20h-40c-11.028 0-20-8.972-20-20v-120c0-11.028 8.972-20 20-20h40c11.028 0 20 8.972 20 20zm40-80h36v40h-36zm156 40v-40h36v40zm156 40c0 11.028-8.972 20-20 20h-40c-11.028 0-20-8.972-20-20v-120c0-11.028 8.972-20 20-20h40c11.028 0 20 8.972 20 20z"/></g></svg>