<svg id="Capa_1" enable-background="new 0 0 512 512" height="512" viewBox="0 0 512 512" width="512" xmlns="http://www.w3.org/2000/svg"><g><path d="m256 176h-40v100h80v-40h-40z"/><path d="m436 236h-41.248c-5.29-42.233-27.109-79.395-58.752-104.801v-131.199h-200v131.199c-36.554 29.348-60 74.385-60 124.801s23.446 95.453 60 124.801v131.199h200v-131.199c31.643-25.406 53.462-62.568 58.752-104.801h41.248zm-260-196h120v67.685c-18.539-7.527-38.792-11.685-60-11.685s-41.461 4.158-60 11.685zm120 432h-120v-67.685c18.539 7.527 38.792 11.685 60 11.685s41.461-4.158 60-11.685zm-60-96c-66.168 0-120-53.832-120-120s53.832-120 120-120 120 53.832 120 120-53.832 120-120 120z"/></g></svg>