<svg id="Capa_1" enable-background="new 0 0 511.935 511.935" height="512" viewBox="0 0 511.935 511.935" width="512" xmlns="http://www.w3.org/2000/svg"><g><path d="m511.935 141.42-141.421-141.42-84.853 84.894-28.305-28.305-216.417 216.416c-54.586 54.586-54.586 143.404 0 197.99 54.584 54.584 143.402 54.588 197.989 0l216.417-216.417-28.305-28.305zm-141.463-84.603 28.18 28.181-28.159 28.159 28.284 28.284 28.159-28.159 28.18 28.18-56.361 56.527-84.811-84.811zm-159.827 385.894c-38.99 38.99-102.431 38.99-141.421 0-38.99-38.99-38.99-102.431 0-141.421l188.132-188.132 141.421 141.421z"/><path d="m291.64 192.01-30.691 30.691c-21.85-10.459-49.487-7.082-68.303 11.735-18.824 18.824-22.19 46.463-11.735 68.303l-58.976 58.976 28.284 28.285 58.976-58.976c7.977 3.819 16.771 5.839 25.877 5.839 16.026 0 31.094-6.241 42.426-17.573 18.825-18.825 22.189-46.464 11.735-68.304l30.691-30.691zm-42.426 98.994c-7.816 7.816-20.468 7.819-28.284 0-7.816-7.814-7.817-20.466 0-28.284 7.814-7.816 20.466-7.817 28.284 0 7.815 7.816 7.818 20.468 0 28.284z"/></g></svg>