<svg id="Layer_1" data-name="Layer 1" xmlns="http://www.w3.org/2000/svg" viewBox="0 0 384 384"><path d="M768,591c2-7.49,4.19-14.84,9.11-21.07,9-11.36,20.65-17.55,35.15-17.87,11.11-.25,22.24,0,34.24,0L770.15,424.72l25.59-15.37c.75,1.16,1.5,2.24,2.18,3.37q40.77,67.93,81.47,135.92c1.57,2.63,3.25,3.43,6.18,3.42q74.43-.12,148.87,0c2.93,0,4.61-.79,6.17-3.42q40.53-67.86,81.28-135.6c.7-1.15,1.44-2.29,2.32-3.7l25.64,15.38L1073.51,552c6.26,0,11.82-.15,17.37,0,8.84.29,17.94-.4,26.44,1.5,18.73,4.2,29.74,16.79,34,35.42a17.12,17.12,0,0,0,.73,2v71.25c-.25,1-.55,1.89-.75,2.85-3.39,16.11-12.69,27.42-27.86,33.69-2.7,1.11-3.46,2.37-3.43,5.14.09,9.36-.12,18.71-.21,28.07h-30V702.25h-264V732h-30c.09-10.48.25-21,.16-31.43,0-1-1.41-2.46-2.51-3-11.17-5.76-19-14.44-23.06-26.34-1-2.91-1.57-6-2.34-9Zm191.82,81h145.45c10.66,0,16.72-6.06,16.73-16.71q0-28.31,0-56.61c0-10.65-6.07-16.68-16.76-16.68H814.73c-10.68,0-16.72,6-16.73,16.7q0,27.93,0,55.86c0,11.67,5.79,17.44,17.5,17.44Z" transform="translate(-768 -348)"/><path d="M973.5,348c6.29.87,12.62,1.51,18.86,2.64,34.09,6.16,63.25,21.78,87.78,46.15,3.1,3.08,6.17,6.19,9.26,9.3.17.17.27.41.15.23l-21.33,21.23c-27.4-31.18-62.13-49.48-105.14-49.47S885.26,396.22,857.44,428l-21.65-21.66c8-7.36,15.77-15.31,24.37-22.23,26.2-21.1,56.23-32.91,89.82-35.53a16.14,16.14,0,0,0,2.52-.59Z" transform="translate(-768 -348)"/><path d="M1047.43,449.22l-21.33,21.36c-3.37-3.54-6.75-7.34-10.38-10.87-15.14-14.74-33.34-22.1-54.47-21.64a72.61,72.61,0,0,0-49.43,20.2c-4.17,3.9-8,8.22-11.73,12.16l-21.24-21.37C922.62,395.91,999.39,392.36,1047.43,449.22Z" transform="translate(-768 -348)"/><path d="M942.39,512.85l-21.23-21.19c11.34-13.53,24.31-24.52,43.71-23.58,10.3.5,19.61,3.87,27.31,10.78,4.45,4,8.37,8.57,12.15,12.48-6.71,6.72-13.63,13.66-21,21.05-2.42-2.51-5.45-5.78-8.61-8.92-7.45-7.38-16-7.39-23.37,0C948.24,506.55,945.3,509.78,942.39,512.85Z" transform="translate(-768 -348)"/><path d="M942.24,612.07H971.7v29.66H942.24Z" transform="translate(-768 -348)"/><path d="M1002.24,612.07h29.46v29.66h-29.46Z" transform="translate(-768 -348)"/><path d="M1091.82,612.21v29.52h-29.58V612.21Z" transform="translate(-768 -348)"/></svg>