<svg height="512pt" viewBox="0 0 512 512" width="512pt" xmlns="http://www.w3.org/2000/svg"><path d="m294 242h-74c-33.085938 0-60 26.914062-60 60v210h194v-210c0-33.085938-26.914062-60-60-60zm20 230h-114v-170c0-11.027344 8.972656-20 20-20h74c11.027344 0 20 8.972656 20 20zm-38-60c0 11.046875-8.953125 20-20 20s-20-8.953125-20-20 8.953125-20 20-20 20 8.953125 20 20zm0-70c0 11.046875-8.953125 20-20 20s-20-8.953125-20-20 8.953125-20 20-20 20 8.953125 20 20zm236 90v-432h-120v432h40v40h-40v40h120v-40h-40v-40zm-80-392h40v352h-40zm-432 392h40v40h-40v40h120v-40h-40v-40h40v-432h-120zm40-392h40v352h-40zm0 0"/></svg>