<svg id="Capa_1" enable-background="new 0 0 512 512" height="512" viewBox="0 0 512 512" width="512" xmlns="http://www.w3.org/2000/svg"><g><circle cx="336" cy="100" r="20"/><circle cx="136" cy="332" r="20"/><circle cx="376" cy="332" r="20"/><path d="m376 232h-100v-32h100c33.084 0 60-26.916 60-60v-80c0-33.084-26.916-60-60-60h-240c-33.084 0-60 26.916-60 60v80c0 33.084 26.916 60 60 60h100v32h-100c-55.141 0-100 44.86-100 100v100c0 44.112 35.888 80 80 80s80-35.888 80-80h120c0 44.112 35.888 80 80 80s80-35.888 80-80v-100c0-55.14-44.859-100-100-100zm-240-72c-11.028 0-20-8.972-20-20v-80c0-11.028 8.972-20 20-20h240c11.028 0 20 8.972 20 20v80c0 11.028-8.972 20-20 20-10.046 0-229.811 0-240 0zm300 272c0 22.056-17.944 40-40 40s-40-17.944-40-40v-40h-200v40c0 22.056-17.944 40-40 40s-40-17.944-40-40v-100c0-33.084 26.916-60 60-60h240c33.084 0 60 26.916 60 60z"/><path d="m196 312h120v40h-120z"/></g></svg>