<svg id="Capa_1" enable-background="new 0 0 512 512" height="512" viewBox="0 0 512 512" width="512" xmlns="http://www.w3.org/2000/svg"><g><path d="m452 116h-56v-116h-280v116h-56c-33.084 0-60 26.916-60 60v160c0 33.084 26.916 60 60 60h56v116h280v-116h56c33.084 0 60-26.916 60-60v-160c0-33.084-26.916-60-60-60zm-296-76h200v76h-200zm200 432h-200v-156h200zm116-136c0 11.028-8.972 20-20 20h-56v-40h40v-40c-15.573 0-344.05 0-360 0v40h40v40h-56c-11.028 0-20-8.972-20-20v-160c0-11.028 8.972-20 20-20h392c11.028 0 20 8.972 20 20z"/><circle cx="336" cy="216" r="20"/><circle cx="416" cy="216" r="20"/><path d="m196 396h120v40h-120z"/></g></svg>