<?xml version="1.0" encoding="iso-8859-1"?>
<!-- Generator: Adobe Illustrator 19.0.0, SVG Export Plug-In . SVG Version: 6.00 Build 0)  -->
<svg version="1.1" id="Capa_1" xmlns="http://www.w3.org/2000/svg" xmlns:xlink="http://www.w3.org/1999/xlink" x="0px" y="0px"
	 viewBox="0 0 512 512" style="enable-background:new 0 0 512 512;" xml:space="preserve">
<g>
	<g>
		<path d="M488.958,30.232C488.324,30.33,424.973,40,381.999,40c-17.057,0-44.828-6.619-76.984-14.284
			C256.947,14.259,197.123,0,139.001,0C62.356,0,0.001,62.355,0.001,138.999c0,43.138,19.753,81.748,50.69,107.263
			c1.439,3.431,3.19,6.723,5.258,9.846c8.565,17.526,45.053,108.619,45.053,195.892c0,33.084,26.916,60,60,60
			c33.084,0,60-26.916,60-60c0-34.101-4.121-67.671-9.898-98.002h19.898v-40h-28.8c-3.263-12.838-6.646-24.637-9.875-35.088
			c-0.439-1.421-0.888-2.839-1.336-4.258c40.699-4.9,80.263-14.323,114.025-22.37c32.156-7.665,59.927-14.284,76.984-14.284
			c42.916,0,106.324,9.67,106.959,9.768l23.04,3.542V26.688L488.958,30.232z M104.001,231.603c-37.365-14.17-64-50.332-64-92.603
			c0-42.272,26.634-78.434,64-92.603V231.603z M161.002,472c-11.028,0-20-8.972-20-20c0-67.365-19.462-135.947-34.61-177.875
			c10.464,2.525,21.382,3.873,32.61,3.873c3.655,0,7.317-0.057,10.982-0.165c1.409,4.265,2.792,8.57,4.126,12.888
			c12.268,39.698,26.892,99.902,26.892,161.279C181.001,463.028,172.03,472,161.002,472z M354,200.734
			c-17.05,2.818-36.74,7.51-58.259,12.639c-44.599,10.63-99.763,23.779-151.74,24.587V40.039
			c51.977,0.808,107.142,13.957,151.74,24.587c21.519,5.129,41.209,9.82,58.259,12.637V200.734z M471.999,205.038
			c-20.397-2.61-50.99-5.993-78-6.839V79.8c27.01-0.846,57.603-4.229,78-6.839V205.038z"/>
	</g>
</g>
<g>
</g>
<g>
</g>
<g>
</g>
<g>
</g>
<g>
</g>
<g>
</g>
<g>
</g>
<g>
</g>
<g>
</g>
<g>
</g>
<g>
</g>
<g>
</g>
<g>
</g>
<g>
</g>
<g>
</g>
</svg>
